<svg xmlns="http://www.w3.org/2000/svg" version="1.1" xmlns:xlink="http://www.w3.org/1999/xlink" xmlns:svgjs="http://svgjs.com/svgjs" width="1280" height="700" preserveAspectRatio="none" viewBox="0 0 1280 700"><g mask="url(&quot;#SvgjsMask1074&quot;)" fill="none"><rect width="1280" height="700" x="0" y="0" fill="url(#SvgjsRadialGradient1075)"></rect><path d="M1322.6666666666667 700L0 700 L0 513.49Q42.19 449.01, 106.66666666666666 491.2Q193.51 471.37, 213.33333333333331 558.21Q230.84 511.72, 277.3333333333333 529.22Q325.39 470.61, 384 518.67Q404.64 475.31, 448 495.95Q497.55 481.5, 512 531.05Q537.61 492.65, 576 518.26Q601.88 480.14, 640 506.03Q696.18 498.21, 704 554.39Q724.2 510.59, 768 530.78Q785 483.78, 832 500.79Q908.98 471.11, 938.6666666666666 548.09Q953.85 499.28, 1002.6666666666666 514.46Q1046.67 451.8, 1109.3333333333333 495.81Q1187.11 466.92, 1216 544.7Q1257.14 479.18, 1322.6666666666667 520.32z" fill="rgba(109, 109, 109, 1)"></path><path d="M1301.3333333333333 700L0 700 L0 598.14Q8.94 543.08, 64 552.01Q125.43 506.77, 170.66666666666666 568.2Q235.58 526.45, 277.3333333333333 591.36Q313.61 520.97, 384 557.24Q459.49 526.07, 490.66666666666663 601.56Q530.98 535.2, 597.3333333333333 575.51Q622.8 536.98, 661.3333333333333 562.44Q712.6 549.71, 725.3333333333333 600.97Q773.41 542.38, 831.9999999999999 590.45Q857.1 551.56, 895.9999999999999 576.66Q939.31 513.31, 1002.6666666666665 556.62Q1050.2 540.15, 1066.6666666666665 587.69Q1133.16 547.52, 1173.3333333333333 614.01Q1187.11 563.79, 1237.3333333333333 577.57Q1275.05 551.29, 1301.3333333333333 589z" fill="rgba(255, 255, 255, 1)"></path><path d="M1322.6666666666667 700L0 700 L0 665.74Q24.49 583.57, 106.66666666666666 608.06Q176.16 570.89, 213.33333333333331 640.38Q277.33 597.71, 320 661.7Q341.68 576.72, 426.66666666666663 598.4Q494.67 559.73, 533.3333333333333 627.73Q584.56 614.95, 597.3333333333333 666.18Q624.51 586.69, 703.9999999999999 613.86Q727.63 573.5, 767.9999999999999 597.13Q849.06 571.53, 874.6666666666665 652.59Q913.83 627.75, 938.6666666666665 666.92Q958.88 580.47, 1045.3333333333333 600.68Q1084.5 575.85, 1109.3333333333333 615.01Q1170.59 569.6, 1216 630.86Q1253.76 561.96, 1322.6666666666667 599.72z" fill="rgba(37, 37, 37, 1)"></path><path d="M1344 700L0 700 L0 720.62Q23.74 637.7, 106.66666666666666 661.44Q145.44 636.21, 170.66666666666666 674.98Q223.94 664.25, 234.66666666666666 717.53Q276.68 652.88, 341.3333333333333 694.89Q388.78 635.67, 448 683.12Q486.59 615.05, 554.6666666666666 653.64Q633.63 625.93, 661.3333333333333 704.89Q684.28 663.84, 725.3333333333333 686.79Q768.17 622.96, 831.9999999999999 665.8Q888.93 658.73, 895.9999999999999 715.66Q908.54 664.2, 959.9999999999999 676.75Q1001.07 611.15, 1066.6666666666665 652.22Q1119.6 641.15, 1130.6666666666665 694.08Q1169.47 626.22, 1237.3333333333333 665.02Q1315.94 636.96, 1344 715.56z" fill="white"></path></g><defs><mask id="SvgjsMask1074"><rect width="1280" height="700" fill="#ffffff"></rect></mask><radialGradient cx="100%" cy="0%" r="1458.9" gradientUnits="userSpaceOnUse" id="SvgjsRadialGradient1075"><stop stop-color="rgba(0, 22, 22, 1)" offset="0"></stop><stop stop-color="rgba(19, 15, 57, 1)" offset="0.62"></stop></radialGradient></defs></svg>