<svg xmlns="http://www.w3.org/2000/svg" version="1.1" xmlns:xlink="http://www.w3.org/1999/xlink" xmlns:svgjs="http://svgjs.com/svgjs" width="1280" height="700" preserveAspectRatio="none" viewBox="0 0 1280 700"><g mask="url(&quot;#SvgjsMask2562&quot;)" fill="none"><rect width="1280" height="700" x="0" y="0" fill="url(#SvgjsLinearGradient2563)"></rect><path d="M1386.6666666666667 700L0 700 L0 423.93Q25.21 385.14, 64 410.35Q105.96 345.65, 170.66666666666666 387.61Q225.87 378.81, 234.66666666666666 434.01Q271.27 363.95, 341.3333333333333 400.55Q366.42 318.97, 448 344.06Q486.28 318.34, 512 356.62Q597.47 378.09, 576 463.56Q625.16 406.05, 682.6666666666666 455.21Q724.78 390.66, 789.3333333333333 432.77Q821.55 358.32, 895.9999999999999 390.54Q976.14 364.01, 1002.6666666666665 444.15Q1010.97 345.79, 1109.3333333333333 354.09Q1158.95 339.71, 1173.3333333333333 389.33Q1259.44 368.77, 1280 454.88Q1294.59 362.81, 1386.6666666666667 377.4z" fill="rgba(109, 109, 109, 1)"></path><path d="M1322.6666666666667 700L0 700 L0 524.1Q68.25 485.68, 106.66666666666666 553.93Q107.82 491.08, 170.66666666666666 492.23Q211.24 426.14, 277.3333333333333 466.71Q313.77 396.48, 384 432.91Q421.39 406.3, 448 443.69Q526.06 415.08, 554.6666666666666 493.14Q614.78 446.59, 661.3333333333333 506.7Q681.05 462.41, 725.3333333333333 482.13Q784.62 434.75, 831.9999999999999 494.03Q902.45 457.81, 938.6666666666665 528.26Q997.35 480.28, 1045.3333333333333 538.96Q1072.96 459.92, 1152 487.54Q1194.77 423.64, 1258.6666666666667 466.41Q1280.76 424.5, 1322.6666666666667 446.59z" fill="rgba(255, 255, 255, 1)"></path><path d="M1322.6666666666667 700L0 700 L0 523.16Q72 488.5, 106.66666666666666 560.5Q173.93 521.1, 213.33333333333331 588.36Q290.08 558.44, 320 635.19Q320.39 571.58, 384 571.97Q394.58 518.55, 448 529.12Q485.48 502.6, 512 540.07Q580.45 501.85, 618.6666666666666 570.3Q669.04 556.67, 682.6666666666666 607.04Q697.62 515.32, 789.3333333333333 530.27Q853.61 487.88, 895.9999999999999 552.16Q960.82 552.98, 959.9999999999999 617.81Q946.33 540.14, 1023.9999999999999 526.48Q1077.99 516.47, 1088 570.47Q1142.71 561.18, 1152 615.9Q1200.02 557.26, 1258.6666666666667 605.28Q1301.71 584.32, 1322.6666666666667 627.36z" fill="rgba(45, 45, 45, 1)"></path><path d="M1301.3333333333335 700L0 700 L0 700.82Q7.53 644.36, 64 651.89Q123.57 604.8, 170.66666666666666 664.37Q232.39 662.1, 234.66666666666666 723.82Q252.68 635.17, 341.3333333333333 653.18Q354.64 602.49, 405.3333333333333 615.8Q469.48 573.28, 512 637.43Q561.01 622.44, 576 671.46Q621.26 610.06, 682.6666666666666 655.32Q731.45 640.11, 746.6666666666666 688.89Q797.57 675.8, 810.6666666666666 726.7Q817.2 669.24, 874.6666666666666 675.77Q937.98 632.42, 981.3333333333333 695.73Q1014.23 621.96, 1088 654.85Q1170.17 630.35, 1194.6666666666667 712.52Q1225.26 636.45, 1301.3333333333335 667.05z" fill="white"></path></g><defs><mask id="SvgjsMask2562"><rect width="1280" height="700" fill="#ffffff"></rect></mask><linearGradient x1="11.33%" y1="120.71%" x2="88.67%" y2="-20.71%" gradientUnits="userSpaceOnUse" id="SvgjsLinearGradient2563"><stop stop-color="rgba(194, 255, 0, 1)" offset="1"></stop><stop stop-color="rgba(34, 255, 0, 0)" offset="1"></stop></linearGradient></defs></svg>