<svg xmlns="http://www.w3.org/2000/svg" version="1.1" xmlns:xlink="http://www.w3.org/1999/xlink" xmlns:svgjs="http://svgjs.com/svgjs" width="1280" height="700" preserveAspectRatio="none" viewBox="0 0 1280 700"><g mask="url(&quot;#SvgjsMask1596&quot;)" fill="none"><rect width="1280" height="700" x="0" y="0" fill="url(#SvgjsLinearGradient1597)"></rect><path d="M1301.3333333333333 700L0 700 L0 488.58Q15.03 439.61, 64 454.64Q89.58 373.55, 170.66666666666666 399.13Q215.44 379.9, 234.66666666666666 424.67Q307.84 391.18, 341.3333333333333 464.35Q369.47 385.82, 448 413.95Q514.28 373.57, 554.6666666666666 439.85Q588.37 366.89, 661.3333333333333 400.59Q704.86 380.12, 725.3333333333333 423.64Q783.92 375.56, 831.9999999999999 434.15Q877.88 416.03, 895.9999999999999 461.92Q958.68 417.93, 1002.6666666666665 480.61Q1006.43 420.37, 1066.6666666666665 424.13Q1092.95 386.41, 1130.6666666666665 412.69Q1208.47 383.83, 1237.3333333333333 461.63Q1277.98 438.28, 1301.3333333333333 478.93z" fill="rgba(109, 109, 109, 1)"></path><path d="M1343.9999999999998 700L0 700 L0 542.37Q4.65 483.02, 64 487.68Q87.34 447.02, 128 470.37Q174.86 453.23, 192 500.08Q273.4 474.81, 298.66666666666663 556.21Q316.71 510.25, 362.66666666666663 528.29Q439.06 498.01, 469.33333333333326 574.4Q484.62 525.69, 533.3333333333333 540.98Q537.77 481.42, 597.3333333333333 485.86Q657.7 439.56, 703.9999999999999 499.93Q744.59 433.85, 810.6666666666665 474.44Q848.68 448.46, 874.6666666666665 486.47Q968.75 473.89, 981.3333333333331 567.98Q1011.94 491.92, 1087.9999999999998 522.53Q1128.79 499.32, 1151.9999999999998 540.11Q1160.98 485.09, 1215.9999999999998 494.07Q1242.16 456.23, 1279.9999999999998 482.39Q1335.95 474.34, 1343.9999999999998 530.29z" fill="rgba(255, 255, 255, 1)"></path><path d="M1344 700L0 700 L0 575.29Q72.49 541.12, 106.66666666666666 613.61Q173.96 574.24, 213.33333333333331 641.53Q247.21 568.74, 320 602.61Q328.92 547.53, 384 556.45Q421.63 530.08, 448 567.71Q508.71 521.76, 554.6666666666666 582.47Q598.82 562.62, 618.6666666666666 606.77Q671.69 595.8, 682.6666666666666 648.82Q699.72 559.2, 789.3333333333333 576.25Q814.31 537.23, 853.3333333333333 562.2Q909.04 553.9, 917.3333333333333 609.61Q961.28 589.56, 981.3333333333333 633.5Q990.83 579, 1045.3333333333333 588.5Q1070.61 549.77, 1109.3333333333333 575.05Q1159.81 561.52, 1173.3333333333333 612Q1193.82 525.82, 1280 546.31Q1320.63 522.94, 1344 563.58z" fill="rgba(37, 37, 37, 1)"></path><path d="M1301.3333333333333 700L0 700 L0 624.64Q75.83 593.8, 106.66666666666666 669.63Q166.84 665.81, 170.66666666666666 725.98Q191.72 683.03, 234.66666666666666 704.08Q243.06 648.47, 298.66666666666663 656.86Q342.19 593.72, 405.33333333333326 637.25Q483.79 609.04, 511.9999999999999 687.49Q548.53 617.35, 618.6666666666665 653.88Q697.88 626.43, 725.3333333333331 705.65Q746.3 662.62, 789.3333333333331 683.58Q838.12 668.37, 853.3333333333331 717.15Q867.76 624.91, 959.9999999999998 639.34Q1025.61 598.28, 1066.6666666666665 663.89Q1113.31 646.53, 1130.6666666666665 693.17Q1142.04 640.54, 1194.6666666666665 651.92Q1258.59 609.17, 1301.3333333333333 673.09z" fill="white"></path></g><defs><mask id="SvgjsMask1596"><rect width="1280" height="700" fill="#ffffff"></rect></mask><linearGradient x1="88.67%" y1="-20.71%" x2="11.33%" y2="120.71%" gradientUnits="userSpaceOnUse" id="SvgjsLinearGradient1597"><stop stop-color="rgba(14, 42, 71, 1)" offset="0.29"></stop><stop stop-color="rgba(0, 69, 158, 1)" offset="1"></stop></linearGradient></defs></svg>